#!OML:ASF F:\VICON\USERDATA\INSTALL\rory3\rory3.ASF
:FULLY-SPECIFIED
:DEGREES
19
root 1.00032 18.0157 -7.487980000000036 -4.430659999999998 -5.598700000000007 0.09452550000000248
lfemur -12.398600000000002 -5.153559999999996 -24.837400000000006
ltibia 29.144099999999998
lfoot -8.427670000000003 2.0857800000000006
ltoes -0.16395500000000007
rfemur -13.5365 0.008644059999996845 21.184900000000006
rtibia 73.63209999999994
rfoot 5.6227399999999985 -3.257650000000005
rtoes 7.041800000000009
lowerback 11.575799999999997 1.8132299999999983 0.840806999999999
upperback 0.6631379999999996 2.545889999999998 0.47846199999999917
thorax -5.781469999999999 1.2337700000000007 -0.38783799999999913
lowerneck -15.771899999999999 -2.80712 -1.208860000000001
upperneck 22.643300000000004 -3.4024200000000007 -0.8653009999999987
head 9.79117 -1.78266 -0.5408649999999995
lclavicle -1.923860000000002e-14 -7.156249999999985e-15
lhumerus -35.552800000000005 9.443239999999998 79.0333
lradius 22.5839
lwrist 3.8266800000000014
lhand -26.029499999999995 20.642
lfingers 7.12502
lthumb 0.5172569999999954 50.6211
rclavicle -1.923860000000002e-14 -7.156249999999985e-15
rhumerus -24.849800000000002 -19.1006 -80.4064
rradius 25.542
rwrist 6.188299999999997
rhand -17.9047 22.67
rfingers 7.12502
rthumb 8.36226 -7.14443
20
root 0.9902060000000003 18.0279 -6.959620000000022 -4.508300000000004 -4.8779100000000035 0.5858049999999937
lfemur -10.225699999999998 -5.353249999999991 -25.689599999999988
ltibia 28.174300000000002
lfoot -9.693570000000006 2.184960000000004
ltoes 0.4452240000000067
rfemur -17.485800000000005 -0.6966359999999887 20.530199999999994
rtibia 74.85910000000005
rfoot 2.4808099999999733 -5.227809999999999
rtoes 9.998570000000003
lowerback 11.591299999999999 1.4242000000000001 0.36849399999999843
upperback 0.5755900000000007 1.9689500000000004 0.4832070000000016
thorax -5.90396 0.9623280000000005 -0.025133499999998588
lowerneck -15.953 -2.70929 -1.2024399999999993
upperneck 23.156999999999996 -3.2031899999999998 -1.1165100000000017
head 10.003800000000002 -1.7193200000000002 -0.6134069999999989
lclavicle 6.994739999999994e-15 1.5505199999999985e-14
lhumerus -34.346900000000005 8.467189999999995 79.4171
lradius 23.375800000000005
lwrist 3.9451699999999983
lhand -25.803600000000003 23.720500000000005
lfingers 7.12502
lthumb 0.7354490000000014 53.699
rclavicle 6.994739999999994e-15 1.5505199999999985e-14
rhumerus -25.684599999999996 -20.493300000000005 -79.9332
rradius 24.915199999999995
rwrist 6.678459999999998
rhand -15.921000000000003 8.686340000000024
rfingers 7.12502
rthumb 10.2764 -21.042600000000018
21
root 0.6516569287373608 18.01151057827063 24.259188420421836 -2.25195295830183 -2.0796295967144744 1.0023530506953577
lfemur 1.0843396318261806 -3.6027107323138177 -24.644718521570752
ltibia 19.394607748763264
lfoot -2.420155301253037 -3.2206973895748714
ltoes -8.404583290931697
rfemur -25.366408974483598 0.28984055969423617 19.248335313523288
rtibia 73.80787392938801
rfoot -0.1066825519999437 0.10291637135832588
rtoes 6.598900472815823
lowerback 9.880836687199405 -0.13107392740922813 -1.0207440478071068
upperback 0.332938734342236 -0.39039343805598736 0.8724263549751841
thorax -5.51066540033867 -0.018750694625099873 2.000415692886527
lowerneck -16.75632346901748 -2.710993867039326 -1.2575971081514985
upperneck 22.543309014512772 -3.3816840119705027 -0.19665405238531708
head 9.93663238973698 -1.7034813194035585 -0.1702118739678729
lclavicle 3.6644615597440126e-16 -8.412831571570103e-16
lhumerus -30.690145235037495 4.629866666832829 79.57004991254824
lradius 26.29008375012496
lwrist 7.060843898093106
lhand -28.53376448107279 19.40376269151473
lfingers nan
lthumb -1.754148099590645 49.444971515027675
rclavicle 4.161120620576645e-16 -8.043062133795527e-16
rhumerus -27.944058058036195 -21.159735168613057 -80.63809961422778
rradius 24.49857868633905
rwrist 3.4160581265863628
rhand -17.91265160138628 20.924472604100636
rfingers nan
rthumb 8.898722557602099 -8.655489536442587
22
root 0.4189046805706408 18.012920515073763 20.734949243222765 -2.261254415762363 -1.6909303587767952 3.423393842517437
lfemur 5.987301313434271 -4.039816242608189 -28.02234419175138
ltibia 12.69713290801188
lfoot 3.695293326774987 -6.937066556624072
ltoes -7.183511045523442
rfemur -27.78242404582141 0.4308437702657737 16.498375183634188
rtibia 69.86436845897319
rfoot -1.3914805334921612 1.462327193651901
rtoes 4.140404958569563
lowerback 10.016321422149971 -0.3766190077409198 -3.0730736751585233
upperback 0.21425276592045228 -1.0356044940475684 0.7106632015127794
thorax -5.239576073852674 -0.34846939179185205 2.618770007657025
lowerneck -16.756946336621574 -2.6377386917354686 -1.421366247396791
upperneck 22.048116229047015 -3.270468957249288 0.24767936801174634
head 9.73311456613266 -1.6560173273637346 0.11024178208826316
lclavicle 3.1141120898150627e-16 -8.737005253776726e-16
lhumerus -27.187320805760454 1.0440381324427959 79.39766756855595
lradius 27.83191426382498
lwrist 7.841875246109911
lhand -28.580392610859974 19.24505360187194
lfingers nan
lthumb -1.858234058190264 48.890480391683546
rclavicle 4.134020001430473e-16 -8.009632006337123e-16
rhumerus -29.851152924872384 -21.58710494987698 -81.05260364779836
rradius 24.270604506083867
rwrist 1.9069922482912287
rhand -17.95497781389286 20.78365960723735
rfingers nan
rthumb 8.685563411878766 -8.587107066364464
23
root 0.2761394440734194 18.00684176071361 18.615821415343042 -2.174469025578037 -1.1962187362925956 4.172481363401627
lfemur 9.491550769708866 -5.17193340779945 -29.040198559898556
ltibia 9.84572907902798
lfoot 3.565344315675551 -8.119130601893485
ltoes -5.723093775249905
rfemur -28.194136975552144 0.07502768840099705 16.162264301856638
rtibia 63.07003178850668
rfoot -1.7700449165181942 1.746059467846984
rtoes 2.437980220503525
lowerback 9.984616536151421 -0.7332702802820799 -3.747282421047163
upperback 0.21481459804473196 -1.5429381928132133 0.7678388434551638
thorax -5.051031372119349 -0.5738991087092182 3.0777000751037926
lowerneck -16.71272889360337 -2.5868665688743513 -1.6675527309914155
upperneck 21.951802875225276 -3.1899531090612916 0.362581059026978
head 9.630983851600943 -1.6306040274595157 0.20727850467608422
lclavicle 3.353100721242339e-16 -8.536234146618024e-16
lhumerus -24.20481069896392 -1.4602433540300286 78.92848832281564
lradius 28.457677832448066
lwrist 7.4254957953432985
lhand -28.85575684276338 18.2602004360617
lfingers nan
lthumb -2.036729471723526 47.97684860313649
rclavicle 3.943718438117778e-16 -8.128077494275467e-16
rhumerus -31.467756521593635 -22.063126706800926 -80.75912907576337
rradius 24.251430249410596
rwrist 2.2524372807289597
rhand -17.92960320967421 20.723096944816884
rfingers nan
rthumb 8.738105089834104 -8.114578217349854
24
root 0.16854997253733714 17.969950926687332 17.764328828597716 -2.957184317418404 -1.5696825231990907 5.079944898574559
lfemur 11.48993718478281 -5.918862208689839 -30.10927542299328
ltibia 10.784147844956387
lfoot 2.0979894792274045 -7.1588268009547935
ltoes -7.62275914429155
rfemur -28.225889170618554 0.10054677133540935 15.999746721250043
rtibia 55.963565117311475
rfoot -1.2043666542439615 2.1219405763909736
rtoes 1.6412991541846336
lowerback 10.284749592527316 -0.7344365509801654 -4.590351064251772
upperback 0.2494011416747024 -1.6135876482068072 0.7532374494779973
thorax -5.113608619707875 -0.6373808047665968 3.2321540938387443
lowerneck -16.590615221620002 -2.52569542399716 -1.8125727320996279
upperneck 22.08326081795618 -3.084871179184633 0.28948771896640185
head 9.678464267741196 -1.5920854643256128 0.2139176212849806
lclavicle 3.1652929135408065e-16 -8.650973010112258e-16
lhumerus -22.66364322562424 -1.9612248582876308 78.51098288658574
lradius 29.291346865162215
lwrist 6.957960099625699
lhand -28.939080140048542 18.27463694429466
lfingers nan
lthumb -2.0628502520314056 47.967982062296024
rclavicle 4.045974946651837e-16 -8.036669628859107e-16
rhumerus -33.066101413602524 -22.552188844383434 -79.9514985510666
rradius 24.58859316640728
rwrist 2.469302697984813
rhand -17.921048862984787 20.86491533202414
rfingers nan
rthumb 8.632991157403193 -8.216817702986196
25
root 0.12384922696485723 17.944304000816448 17.456767278601706 -2.525754256310984 -1.325447644854333 4.2778909523497735
lfemur 11.844866640646739 -6.1124908149769785 -29.15114105403348
ltibia 14.570986501632092
lfoot 0.6289844199089547 -7.888780627446931
ltoes -3.434696175655294
rfemur -28.453485856755634 0.4430119525622582 17.247813779681973
rtibia 48.867666363323096
rfoot -1.7457204120885317 2.301881754238578
rtoes 1.1360632137029443
lowerback 10.312751027425813 -0.976046044097804 -4.227503129905074
upperback 0.29479838663186464 -1.797963658145087 0.9218962633720544
thorax -5.081345084113804 -0.7590607647208474 3.3252102673996244
lowerneck -16.61212557436818 -2.4999160205368307 -1.9115315795481314
upperneck 22.338489569918703 -3.022734244828418 0.17088474103639173
head 9.81532090174133 -1.5659917304551285 0.16557182912666685
lclavicle 3.123159871259178e-16 -8.677870206947566e-16
lhumerus -22.328359735366313 -0.8906029712242045 78.23100102519484
lradius 30.249450011361127
lwrist 6.571314387362952
lhand -29.23418785176941 18.138384200963173
lfingers nan
lthumb -2.4185709390845886 47.81409057631539
rclavicle 3.911047613052743e-16 -8.131310914586132e-16
rhumerus -34.51277408437276 -23.263407514925753 -78.66167577858823
rradius 25.18431381391534
rwrist 1.6513990970668027
rhand -17.98417486811487 20.722442095872562
rfingers nan
rthumb 8.679054334354616 -8.05284233788966
26
root 0.08736703026681192 17.930780752240278 17.229663858548843 -2.242678793016648 -1.4957978665254363 4.09720896530981
lfemur 11.653748537847584 -5.7140235611406265 -28.63151654409966
ltibia 19.573406265849556
lfoot -0.15458815117377966 -7.798689911023553
ltoes 1.5025124270998798
rfemur -27.902877218434305 0.8882083046493743 18.198542078844717
rtibia 41.52060737563121
rfoot -2.8013462531836755 2.86157949715444
rtoes 0.5015210005090665
lowerback 10.28273211390372 -1.1105981552612647 -4.415251569824118
upperback 0.3288574034498203 -1.9715430944641232 0.9960693238923869
thorax -5.059225794266478 -0.8430315088178764 3.38041857380867
lowerneck -16.55596783655622 -2.48008906101189 -1.9591898062911957
upperneck 22.587327784632738 -2.976519096452035 0.025183018831061776
head 9.887335956340877 -1.5550469184659097 0.10042400926658263
lclavicle 3.0504471857531746e-16 -8.724425500816475e-16
lhumerus -22.826309637552768 0.7624140113014937 78.18399157170583
lradius 31.280230123067536
lwrist 6.455787533605232
lhand -29.326414145482055 18.242112016503015
lfingers nan
lthumb -2.6039814110493165 48.132769225990366
rclavicle 4.0057912180326124e-16 -8.057304977031998e-16
rhumerus -35.57149298344535 -23.969583469952713 -77.19160468320297
rradius 25.946876964681255
rwrist 0.3069524320123014
rhand -17.91659588573962 20.83872157026386
rfingers nan
rthumb 8.707728207543571 -7.809599131706403
